# File created by Blade
# Date/Time:  Wed Jan 21 19:03:17 2015
#---------------------------------------------------------
:version 1.10
:name HOM
:units
  mass 1.0
  length 1.000000
  angle deg
:documentation
     Acclaim Skeleton File
:root
   axis xyz
   order TX TY TZ RX RY RZ
   position 0.000000 0.000000 0.000000
   orientation 0 0 0
:bonedata
   begin
      id 1
      name RightUpLeg_dum
      direction -1.000000 0.000000 0.000000
      length 3.693983
      axis 0.0 0.0 0.0 xyz
   end
   begin
      id 2
      name LeftUpLeg_dum
      direction 1.000000 0.000000 0.000000
      length 3.693983
      axis 0.0 0.0 0.0 xyz
   end
   begin
      id 3
      name Spine_dum
      direction 0.000000 1.000000 0.000000
      length 2.392956
      axis 0.0 0.0 0.0 xyz
   end
   begin
      id 4
      name RightUpLeg
      direction 0.000000 -1.000000 0.000000
      length 15.795667
      axis 0.0 0.0 0.0 xyz
      dof rx ry rz
   end
   begin
      id 5
      name RightLeg
      direction 0.000000 -1.000000 0.000000
      length 14.766989
      axis 0.0 0.0 0.0 xyz
      dof rx ry rz
   end
   begin
      id 6
      name RightFoot
      direction 0.000000 -0.258819 0.965926
      length 4.962790
      axis 15.0 0.0 0.0 xyz
      dof rx ry rz
   end
   begin
      id 7
      name RightToeBase
      direction 0.000000 0.000000 1.000000
      length 2.952750
      axis 0.0 0.0 0.0 xyz
      dof rx ry rz
   end
   begin
      id 8
      name LeftUpLeg
      direction 0.000000 -1.000000 0.000000
      length 15.795667
      axis 0.0 0.0 0.0 xyz
      dof rx ry rz
   end
   begin
      id 9
      name LeftLeg
      direction 0.000000 -1.000000 0.000000
      length 14.766989
      axis 0.0 0.0 0.0 xyz
      dof rx ry rz
   end
   begin
      id 10
      name LeftFoot
      direction 0.000000 -0.258819 0.965926
      length 4.962790
      axis 15.0 0.0 0.0 xyz
      dof rx ry rz
   end
   begin
      id 11
      name LeftToeBase
      direction 0.000000 0.000000 1.000000
      length 2.952750
      axis 0.0 0.0 0.0 xyz
      dof rx ry rz
   end
   begin
      id 12
      name Spine
      direction 0.000000 1.000000 0.000000
      length 0.000000
      axis 0.0 0.0 0.0 xyz
      dof rx ry rz
   end
   begin
      id 13
      name Spine_dum1
      direction 0.000000 1.000000 0.000000
      length 13.207411
      axis 0.0 0.0 0.0 xyz
   end
   begin
      id 14
      name Spine_dum2
      direction 0.000000 1.000000 0.000000
      length 13.207411
      axis 0.0 0.0 0.0 xyz
   end
   begin
      id 15
      name Spine_dum3
      direction 0.000000 1.000000 0.000000
      length 19.250100
      axis 0.0 0.0 0.0 xyz
   end
   begin
      id 16
      name RightShoulder
      direction -1.000000 0.000000 0.000000
      length 8.140465
      axis 0.0 0.0 90.0 xyz
      dof rx ry rz
   end
   begin
      id 17
      name RightArm
      direction -1.000000 0.000000 0.000000
      length 10.649840
      axis 0.0 0.0 90.0 xyz
      dof rx ry rz
   end
   begin
      id 18
      name RightForeArm
      direction -1.000000 0.000000 0.000000
      length 8.304624
      axis 0.0 0.0 90.0 xyz
      dof ry rz rx
   end
   begin
      id 19
      name RightHand
      direction -1.000000 0.000000 0.000000
      length 0.000000
      axis 0.0 0.0 90.0 xyz
      dof rx ry rz
   end
   begin
      id 20
      name RightHand_dum1
      direction -1.000000 0.000000 0.000000
      length 3.937000
      axis 0.0 0.0 90.0 xyz
   end
   begin
      id 21
      name RightHand_dum2
      direction 0.000000 0.000000 0.000000
      length 0.000000
      axis 0.0 0.0 90.0 xyz
   end
   begin
      id 22
      name RightHandThumb1
      direction 0.000000 0.000000 1.000000
      length 3.937000
      axis 0.0 0.0 90.0 xyz
      dof rx rz ry
   end
   begin
      id 23
      name LeftShoulder
      direction 1.000000 0.000000 0.000000
      length 8.140465
      axis 0.0 0.0 -90.0 xyz
      dof rx ry rz
   end
   begin
      id 24
      name LeftArm
      direction 1.000000 0.000000 0.000000
      length 10.649840
      axis 0.0 0.0 -90.0 xyz
      dof rx ry rz
   end
   begin
      id 25
      name LeftForeArm
      direction 1.000000 0.000000 0.000000
      length 8.304624
      axis 0.0 0.0 -90.0 xyz
      dof ry rz rx
   end
   begin
      id 26
      name LeftHand
      direction 1.000000 0.000000 0.000000
      length 0.000000
      axis 0.0 0.0 -90.0 xyz
      dof rx ry rz
   end
   begin
      id 27
      name LeftHand_dum1
      direction 1.000000 0.000000 0.000000
      length 3.937000
      axis 0.0 0.0 -90.0 xyz
   end
   begin
      id 28
      name LeftHand_dum2
      direction 0.000000 0.000000 0.000000
      length 0.000000
      axis 0.0 0.0 -90.0 xyz
   end
   begin
      id 29
      name LeftHandThumb1
      direction 0.000000 0.000000 1.000000
      length 3.937000
      axis 0.0 0.0 -90.0 xyz
      dof rx rz ry
   end
   begin
      id 30
      name Head
      direction 0.000000 1.000000 0.000000
      length 4.527550
      axis 0.0 0.0 0.0 xyz
      dof rx ry rz
   end
:hierarchy
   begin
      root RightUpLeg_dum LeftUpLeg_dum Spine_dum
      RightUpLeg_dum RightUpLeg
      LeftUpLeg_dum LeftUpLeg
      Spine_dum Spine
      RightUpLeg RightLeg
      RightLeg RightFoot
      RightFoot RightToeBase
      LeftUpLeg LeftLeg
      LeftLeg LeftFoot
      LeftFoot LeftToeBase
      Spine Spine_dum1 Spine_dum2 Spine_dum3
      Spine_dum1 RightShoulder
      Spine_dum2 LeftShoulder
      Spine_dum3 Head
      RightShoulder RightArm
      RightArm RightForeArm
      RightForeArm RightHand
      RightHand RightHand_dum1 RightHand_dum2
      RightHand_dum2 RightHandThumb1
      LeftShoulder LeftArm
      LeftArm LeftForeArm
      LeftForeArm LeftHand
      LeftHand LeftHand_dum1 LeftHand_dum2
      LeftHand_dum2 LeftHandThumb1
   end

# File created by Blade
# Date/Time:  Wed Jan 21 19:03:07 2015
# Frame Rate: 120.000 fps
#------------------------------------------------------
:FULLY-SPECIFIED
:DEGREES
423
root -5.270760 30.203263 -9.929347 66.963994 -9.906993 3.167829
RightUpLeg -74.454462 -26.343477 4.286554
RightLeg -6.088266 -0.000000 0.000000
RightFoot 3.545725 -2.462631 35.192250
RightToeBase 18.384027 -0.000000 -0.000000
LeftUpLeg -69.053397 24.947459 -12.507553
LeftLeg -3.703956 -0.000000 0.000000
LeftFoot 1.356964 2.686958 -25.483677
LeftToeBase 8.853145 -0.000000 -0.000000
Spine -40.194747 -2.082228 7.130293
RightShoulder -13.589186 18.446015 -31.427264
RightArm -1.134505 -11.110042 70.450661
RightForeArm 15.839462 -0.000000 -2.591298
RightHand 12.435421 -0.000000 3.705358
RightHandThumb1 -24.326973 -0.000000 -32.862282
LeftShoulder -2.171840 -1.685269 23.931704
LeftArm 22.780624 12.099541 -85.028999
LeftForeArm 0.451191 -0.000000 6.406232
LeftHand -14.032886 -0.000000 1.085186
LeftHandThumb1 -26.253704 0.000000 33.147579
Head -14.263979 7.354926 9.257712
424
root -5.267856 30.195522 -10.021693 67.495352 -10.162286 3.209809
RightUpLeg -75.269815 -26.174960 4.282597
RightLeg -6.013981 -0.000000 0.000000
RightFoot 3.518223 -2.555492 35.202612
RightToeBase 18.729526 -0.000000 -0.000000
LeftUpLeg -69.720786 24.817598 -12.807070
LeftLeg -3.658718 -0.000000 0.000000
LeftFoot 1.355248 2.824693 -25.522460
LeftToeBase 8.905842 -0.000000 -0.000000
Spine -40.069341 -2.065238 7.289231
RightShoulder -13.400293 18.747219 -31.447947
RightArm -0.960446 -10.903016 70.403692
RightForeArm 15.577756 -0.000000 -2.694017
RightHand 12.503341 0.000000 4.094161
RightHandThumb1 -24.326973 -0.000000 -32.862282
LeftShoulder -2.016949 -1.972251 23.876659
LeftArm 23.077946 12.307031 -84.963924
LeftForeArm -0.083120 -0.000000 6.808211
LeftHand -13.957703 0.000000 1.292479
LeftHandThumb1 -26.253704 0.000000 33.147579
Head -14.789223 7.712145 9.011829
425
root -5.262993 30.187608 -10.117303 68.050632 -10.439030 3.283207
RightUpLeg -76.107108 -26.015828 4.196349
RightLeg -5.929083 -0.000000 0.000000
RightFoot 3.620994 -2.663249 34.998344
RightToeBase 18.769904 -0.000000 -0.000000
LeftUpLeg -70.390990 24.631370 -13.098738
LeftLeg -3.626722 -0.000000 0.000000
LeftFoot 1.408807 3.048830 -25.381270
LeftToeBase 8.704219 -0.000000 -0.000000
Spine -39.950747 -2.042675 7.381094
RightShoulder -13.253560 19.072939 -31.482047
RightArm -0.867210 -11.632690 70.411616
RightForeArm 16.220490 -0.000000 -2.714044
RightHand 12.408094 0.000000 4.476839
RightHandThumb1 -24.326973 -0.000000 -32.862282
LeftShoulder -1.815498 -2.344332 23.866060
LeftArm 23.303380 11.722011 -85.317017
LeftForeArm 0.356153 -0.000000 7.092433
LeftHand -13.941479 -0.000000 1.493821
LeftHandThumb1 -26.253704 0.000000 33.147579
Head -15.341997 8.034484 8.801840
426
root -5.257415 30.178999 -10.211957 68.605864 -10.717062 3.357555
RightUpLeg -76.870522 -25.850462 3.996771
RightLeg -5.895264 -0.000000 0.000000
RightFoot 3.526586 -2.880936 35.010052
RightToeBase 19.109170 -0.000000 -0.000000
LeftUpLeg -71.070798 24.453181 -13.424942
LeftLeg -3.600605 -0.000000 0.000000
LeftFoot 1.424335 3.231899 -25.340572
LeftToeBase 8.688876 -0.000000 -0.000000
Spine -39.818165 -2.047819 7.499408
RightShoulder -13.063567 19.327360 -31.466243
RightArm -0.645416 -11.749686 70.340407
RightForeArm 16.336585 -0.000000 -2.777404
RightHand 12.404254 -0.000000 4.943145
RightHandThumb1 -24.326973 -0.000000 -32.862282
LeftShoulder -1.627199 -2.738608 23.850366
LeftArm 23.509832 11.367860 -85.529060
LeftForeArm 0.419104 -0.000000 7.395480
LeftHand -13.699451 -0.000000 1.454800
LeftHandThumb1 -26.253704 0.000000 33.147579
Head -15.923918 8.381376 8.578961
427
root -5.251774 30.170290 -10.307930 69.174314 -10.980915 3.438137
RightUpLeg -77.664640 -25.699024 3.805656
RightLeg -5.826398 -0.000000 0.000000
RightFoot 3.497091 -3.103701 34.925316
RightToeBase 19.103959 -0.000000 -0.000000
LeftUpLeg -71.763779 24.258084 -13.738425
LeftLeg -3.579698 -0.000000 0.000000
LeftFoot 1.449973 3.426857 -25.308300
LeftToeBase 8.707232 -0.000000 -0.000000
Spine -39.682409 -2.025547 7.607316
RightShoulder -12.881376 19.627752 -31.476632
RightArm -0.497873 -11.592882 70.256044
RightForeArm 16.188394 -0.000000 -2.851838
RightHand 12.285389 -0.000000 5.516245
RightHandThumb1 -24.326973 -0.000000 -32.862282
LeftShoulder -1.451165 -3.111397 23.829447
LeftArm 23.814474 11.359398 -85.544169
LeftForeArm 0.205110 -0.000000 7.701831
LeftHand -13.531989 -0.000000 1.526136
LeftHandThumb1 -26.253704 0.000000 33.147579
Head -16.529028 8.733680 8.325006
428
root -5.246770 30.161012 -10.406194 69.758426 -11.239025 3.506203
RightUpLeg -78.460860 -25.543705 3.636355
RightLeg -5.796741 -0.000000 0.000000
RightFoot 3.501775 -3.326379 34.849507
RightToeBase 19.085227 -0.000000 -0.000000
LeftUpLeg -72.475215 24.079854 -14.063534
LeftLeg -3.566258 -0.000000 0.000000
LeftFoot 1.484766 3.578770 -25.354268
LeftToeBase 8.714750 -0.000000 -0.000000
Spine -39.529786 -1.996524 7.719916
RightShoulder -12.732213 19.933808 -31.512455
RightArm -0.370249 -11.734546 70.225416
RightForeArm 16.379958 0.000000 -2.840607
RightHand 12.171368 -0.000000 6.035649
RightHandThumb1 -24.326973 -0.000000 -32.862282
LeftShoulder -1.291056 -3.457691 23.809331
LeftArm 24.205405 11.470086 -85.459159
LeftForeArm -0.129248 -0.000000 8.031858
LeftHand -13.582527 -0.000000 1.486370
LeftHandThumb1 -26.253704 0.000000 33.147579
Head -17.190940 9.027630 8.064933
429
root -5.238944 30.151263 -10.504311 70.349749 -11.507925 3.622949
RightUpLeg -79.332307 -25.451209 3.499582
RightLeg -5.713331 -0.000000 0.000000
RightFoot 3.588636 -3.480962 34.723561
RightToeBase 18.787672 -0.000000 -0.000000
LeftUpLeg -73.191488 23.839497 -14.415332
LeftLeg -3.558981 -0.000000 0.000000
LeftFoot 1.528442 3.780904 -25.331728
LeftToeBase 8.733280 -0.000000 -0.000000
Spine -39.389747 -2.031554 7.833924
RightShoulder -12.503216 20.235065 -31.511584
RightArm -0.203053 -11.273858 70.131299
RightForeArm 16.035994 -0.000000 -2.892108
RightHand 12.132095 -0.000000 6.534491
RightHandThumb1 -24.326973 -0.000000 -32.862282
LeftShoulder -1.136219 -3.871966 23.785222
LeftArm 24.502714 11.371639 -85.497528
LeftForeArm -0.090373 -0.000000 8.349184
LeftHand -13.678131 -0.000000 1.790884
LeftHandThumb1 -26.253704 0.000000 33.147579
Head -17.855783 9.399133 7.788449
430
root -5.234320 30.140092 -10.602033 70.979109 -11.734118 3.703019
RightUpLeg -80.090842 -25.313158 3.213187
RightLeg -5.713231 -0.000000 0.000000
RightFoot 3.419144 -3.840891 34.693487
RightToeBase 19.071524 -0.000000 -0.000000
LeftUpLeg -73.939083 23.622216 -14.762108
LeftLeg -3.596470 -0.000000 0.000000
LeftFoot 1.593601 3.947318 -25.328282
LeftToeBase 8.713844 -0.000000 -0.000000
Spine -39.270205 -2.005129 7.960623
RightShoulder -12.350674 20.535538 -31.531089
RightArm -0.063839 -11.282490 70.068696
RightForeArm 16.074341 -0.000000 -2.891972
RightHand 12.120832 -0.000000 7.187453
RightHandThumb1 -24.326973 -0.000000 -32.862282
LeftShoulder -0.923698 -4.200081 23.771624
LeftArm 24.935197 11.335033 -85.452179
LeftForeArm -0.406983 -0.000000 8.600777
LeftHand -13.550263 -0.000000 1.835683
LeftHandThumb1 -26.253704 0.000000 33.147579
Head -18.527982 9.733747 7.492547
431
root -5.228646 30.126156 -10.695651 71.590125 -12.035342 3.799196
RightUpLeg -80.868989 -25.194045 2.909040
RightLeg -5.710118 -0.000000 0.000000
RightFoot 3.346526 -4.128365 34.661917
RightToeBase 19.124487 -0.000000 -0.000000
LeftUpLeg -74.623373 23.420857 -15.148962
LeftLeg -3.670908 -0.000000 0.000000
LeftFoot 1.638147 4.092677 -25.370459
LeftToeBase 8.829646 -0.000000 -0.000000
Spine -39.127708 -1.971983 8.002957
RightShoulder -12.205438 20.690575 -31.509236
RightArm 0.195767 -11.722037 70.003811
RightForeArm 16.618950 -0.000000 -2.816044
RightHand 12.145082 -0.000000 7.404939
RightHandThumb1 -24.326973 -0.000000 -32.862282
LeftShoulder -0.723631 -4.534960 23.758031
LeftArm 25.369943 11.274218 -85.413985
LeftForeArm -0.346007 -0.000000 8.851298
LeftHand -13.553547 -0.000000 1.874056
LeftHandThumb1 -26.253704 0.000000 33.147579
Head -19.227444 10.039338 7.236417
432
root -5.222563 30.112438 -10.790862 72.183088 -12.316107 3.899919
RightUpLeg -81.647135 -25.097106 2.606443
RightLeg -5.662306 -0.000000 0.000000
RightFoot 3.260613 -4.415917 34.559766
RightToeBase 19.185584 -0.000000 -0.000000
LeftUpLeg -75.302778 23.207574 -15.513897
LeftLeg -3.722487 -0.000000 0.000000
LeftFoot 1.689005 4.221310 -25.433591
LeftToeBase 8.872277 -0.000000 -0.000000
Spine -38.955398 -1.940796 8.062802
RightShoulder -12.069510 21.060088 -31.538028
RightArm 0.237379 -12.065351 69.964821
RightForeArm 16.829704 -0.000000 -2.702398
RightHand 12.017634 0.000000 7.433133
RightHandThumb1 -24.326973 -0.000000 -32.862282
LeftShoulder -0.491900 -4.847416 23.731752
LeftArm 25.844594 11.265175 -85.291521
LeftForeArm -0.557065 -0.000000 9.103103
LeftHand -13.506803 -0.000000 1.920445
LeftHandThumb1 -26.253704 0.000000 33.147579
Head -19.918698 10.369709 6.899242
433
root -5.212406 30.098876 -10.887753 72.840339 -12.524491 4.033507
RightUpLeg -82.461683 -25.076694 2.451965
RightLeg -5.761156 -0.000000 0.000000
RightFoot 3.304112 -4.673810 34.655823
RightToeBase 19.175100 -0.000000 -0.000000
LeftUpLeg -75.983039 22.888383 -15.757089
LeftLeg -3.845707 -0.000000 0.000000
LeftFoot 1.755441 4.468393 -25.493838
LeftToeBase 8.886060 -0.000000 -0.000000
Spine -38.839349 -1.954044 8.210261
RightShoulder -11.923444 21.329103 -31.560236
RightArm 0.431970 -12.133111 69.880649
RightForeArm 16.814732 -0.000000 -2.610408
RightHand 11.999591 -0.000000 7.625570
RightHandThumb1 -24.326973 -0.000000 -32.862282
LeftShoulder -0.268578 -5.294652 23.716424
LeftArm 26.204815 11.284812 -85.188204
LeftForeArm -0.529317 -0.000000 9.321477
LeftHand -13.444136 -0.000000 1.987412
LeftHandThumb1 -26.253704 0.000000 33.147579
Head -20.636766 10.694107 6.568644
